<svg width="17" height="17" viewBox="0 0 17 17" fill="none" xmlns="http://www.w3.org/2000/svg">
<path d="M8.50004 9.51292C8.79026 9.51292 9.07764 9.45575 9.34577 9.34469C9.6139 9.23363 9.85753 9.07084 10.0627 8.86562C10.268 8.66041 10.4307 8.41678 10.5418 8.14865C10.6529 7.88052 10.71 7.59314 10.71 7.30292C10.71 7.0127 10.6529 6.72532 10.5418 6.45719C10.4307 6.18906 10.268 5.94543 10.0627 5.74021C9.85753 5.53499 9.6139 5.37221 9.34577 5.26114C9.07764 5.15008 8.79026 5.09292 8.50004 5.09292C7.91391 5.09292 7.35179 5.32576 6.93733 5.74021C6.52288 6.15467 6.29004 6.71679 6.29004 7.30292C6.29004 7.88905 6.52288 8.45117 6.93733 8.86562C7.35179 9.28008 7.91391 9.51292 8.50004 9.51292Z" stroke="#565656" stroke-width="1.1875"/>
<path d="M2.56429 6.01375C3.9597 -0.120414 13.0476 -0.11333 14.436 6.02084C15.2505 9.61917 13.0122 12.665 11.0501 14.5492C10.3645 15.2104 9.44911 15.5799 8.49658 15.5799C7.54404 15.5799 6.62865 15.2104 5.94304 14.5492C3.98804 12.665 1.7497 9.61209 2.56429 6.01375Z" stroke="#565656" stroke-width="1.1875"/>
</svg>
