<svg width="14" height="13" viewBox="0 0 14 13" fill="none" xmlns="http://www.w3.org/2000/svg">
<path d="M7.83205 1.19585L8.93205 3.39585C9.08205 3.7021 9.48205 3.99585 9.81955 4.0521L11.8133 4.38335C13.0883 4.59585 13.3883 5.52085 12.4695 6.43335L10.9195 7.98335C10.657 8.24585 10.5133 8.7521 10.5945 9.1146L11.0383 11.0333C11.3883 12.5521 10.582 13.1396 9.2383 12.3458L7.36955 11.2396C7.03205 11.0396 6.4758 11.0396 6.13205 11.2396L4.2633 12.3458C2.9258 13.1396 2.1133 12.5458 2.4633 11.0333L2.90705 9.1146C2.9883 8.7521 2.84455 8.24585 2.58205 7.98335L1.03205 6.43335C0.119548 5.52085 0.413298 4.59585 1.6883 4.38335L3.68205 4.0521C4.0133 3.99585 4.4133 3.7021 4.5633 3.39585L5.6633 1.19585C6.2633 0.00209963 7.2383 0.00209963 7.83205 1.19585Z" fill="#9747FF"/>
</svg>
