<?xml version="1.0" encoding="utf-8"?><svg xmlns="http://www.w3.org/2000/svg" xmlns:xlink="http://www.w3.org/1999/xlink" width="1390" height="495" preserveAspectRatio="xMidYMid" viewBox="0 0 1390 495" style="z-index:1;margin-right:-2px;display:block;background-repeat-y:initial;background-repeat-x:initial;animation-play-state:paused" ><g transform="translate(695,247.5) scale(1,-1) translate(-695,-247.5)" style="transform:matrix(1, 0, 0, -1, 0, 495);animation-play-state:paused" ><linearGradient id="lg-0.6936147205195096" x1="0" x2="1" y1="0" y2="0" style="animation-play-state:paused" ><stop stop-color="#6e54f1" offset="0" style="animation-play-state:paused" ></stop>

  
<stop stop-color="#6e54f1" offset="1" style="animation-play-state:paused" ></stop></linearGradient>
<path d="M 0 0 L 0 234.471 Q 86.875 262.715 173.75 238.638 T 347.5 232.044 T 521.25 226.916 T 695 195.668 T 868.75 214.089 T 1042.5 207.236 T 1216.25 197.775 T 1390 245.304 L 1390 0 Z" fill="url(#lg-0.6936147205195096)" opacity="0.4" style="opacity:0.4;animation-play-state:paused" ></path>
<path d="M 0 0 L 0 208.427 Q 86.875 238.16 173.75 195.555 T 347.5 198.868 T 521.25 208.979 T 695 188.836 T 868.75 187.891 T 1042.5 201.645 T 1216.25 230.051 T 1390 173.283 L 1390 0 Z" fill="url(#lg-0.6936147205195096)" opacity="0.4" style="opacity:0.4;animation-play-state:paused" ></path></g></svg>